<?xml version="1.0" encoding="utf-8"?>
<!-- Generator: Adobe Illustrator 19.0.0, SVG Export Plug-In . SVG Version: 6.00 Build 0)  -->
<svg version="1.1" id="Layer_1" xmlns="http://www.w3.org/2000/svg" xmlns:xlink="http://www.w3.org/1999/xlink" x="0px" y="0px"
	 viewBox="0 0 600 300" style="enable-background:new 0 0 600 300;" xml:space="preserve">
<style type="text/css">
	.st0{fill:#37BFC3;}
</style>
<g>
	<g>
		<path class="st0" d="M334.6,101.2c1-4.1,1.3-8.3,1-11.8c-1.9-17.4-15.9-26.3-32.3-26.3c-4.8,0-12.1,0.7-16.7,4.5
			c-1.6-10.4-22.2-12.3-25.6,4l-21.7,91.2c-5.6,17.5-20.8,25.7-33.8,26.5c-11.6,0.7-19.6-4.8-20.4-12.2c-0.2-1.4-0.2-2.9,0.3-4.5
			l0.9-3.1c4.9,2.6,10.9,4.2,17.3,3.8c14.5-0.8,26.3-10.7,29-25.3c0.5-3.1,0.6-6.2,0.3-8.9c-1.7-15.2-14.9-26.2-32.9-25.2
			c-14.2,0.8-27.2,9.9-31,26.2l-6.4,27.9c-0.9,3.9-1.2,7.8-0.8,11.5c2.1,19,21.3,30.2,44.6,28.9c9.8-0.6,19.9-3.3,28.7-8.9
			c5.8,7.5,20.3,7.3,23.4-6.5l7.4-30.9c6.2,5,14.7,7.9,23.6,7.4c15.6-0.9,31.3-11.4,36.5-32.2L334.6,101.2z M193,141.2
			c1.4-4.9,4.9-8,8.6-8.2c4.5-0.3,7.7,3.3,8.2,7.7c0.1,1.3,0.1,2.6-0.2,3.9c-1.6,8.6-12.5,9.2-18.9,6.4L193,141.2z M308.2,103.5
			l-6.6,29c-1.8,8.2-7.4,12.7-13.7,13c-7,0.4-13.3-4.6-14.1-11.8c-0.1-1.1-0.1-2.2-0.1-3.5l0,0.3l7.7-33.5
			c3.6-9.4,9.7-12.8,16.8-12.5C303.8,84.9,310.9,89.8,308.2,103.5z"/>
		<path class="st0" d="M531,144.6c-3.8,16.5-10.9,26.2-18.9,26.7c-2.2,0.1-3.1-0.9-3.3-2.4c-0.1-1.3,0-2.9,0.3-4.4l1.5-7l0,0.2
			c0.4-2.3,0.5-4.7,0.2-6.8c-0.4-3.8-1.7-7.1-4.2-9.4c4.2-2.8,7.9-7,9.6-13.6c0.7-2.8,1-5.9,0.6-8.7c-1.3-12.3-12.3-22.8-26.2-22
			c-3,0.2-5.4,0.5-8.2,1.8l6.2-25.3c5-19-20.3-23.8-23.3-5l-20.8,87.3c-7.1,14.3-19,20.3-29.1,20.9c-11,0.6-18.7-5.2-19.6-13.4
			c-0.2-1.8-0.1-3.7,0.3-5.8l6.9-28.4l0,0.2c1-4.1,3.9-6.7,6.7-6.7c5,0,6.1,4.6,3.9,10.4c-5.2,13,17.4,22.5,22.5,3.2
			c4.9-19.4-9.2-35.4-26.6-34.4c-13.6,0.8-26.6,9.1-30.5,26.2l-6.2,27.4c-0.7,3.2-0.9,6.3-0.8,9.3c-4.7,11.1-10.3,15.2-15.1,15.5
			c-3.7,0.2-6.3-2.1-6.7-5.1c-0.1-0.8,0-1.6,0.2-2.6l12.1-51.3c3.6-18.7-18.8-22.3-23-4.3c-3.5,15.3-8.1,34.8-11.6,49.9
			c-0.6,3.2-1.1,7.6-0.8,10.3c1.6,15,15,23,29.7,22.1c8.8-0.5,17.8-4.1,25.3-13.1c7.7,6.9,19.2,10.8,32.8,10
			c8.8-0.5,17.3-2.9,24.9-7.2c5.1,7.1,20.5,4.8,22.6-6.5l7.3-30.2c7.6,6.3,14.4,2.9,17,1.4c1.1-0.5-0.2,2.9-0.6,4.5
			c-1.1,4.4-1.4,8.8-1,12.8c1.3,12.3,9.9,20.4,25.6,19.5c21.5-1.2,34.9-18.7,40.2-44C553.3,135.3,533.1,132.9,531,144.6z M495,124.8
			c-1,3.8-4.1,6.5-7.8,7.9c-5.4-0.8-10.4,0.1-13,1.7l2-8.3c2.2-5.9,6.8-9.4,11.5-9.7c4-0.2,7.3,1.8,7.6,5.4
			C495.4,122.7,495.4,123.6,495,124.8z"/>
		<path class="st0" d="M148.6,83.3l-20.8,87.3c-3.6,15.2-13.2,23.1-21.4,23.6c-4.6,0.3-7.8-2.3-8.2-6.3c-0.2-1.4,0-2.9,0.5-4.7
			l12.1-50.1l-0.3-0.1c2.1-18.6-23.3-20.7-26.7-2l-6,24.9l0.1,0l-4,16.6l0.1-0.2c-3.6,12.8-13.2,23.5-21.8,23.9
			c-3.7,0.2-6-2.2-6.4-5.9c-0.2-1.4-0.2-3,0.3-4.8l21.9-91.8c4.6-20.9-23-24-26.5-4.5l-22.2,94c-0.9,3.6-1,7.1-0.6,10.5
			c1.6,15,14.9,24.8,30.7,23.9c10.5-0.6,21.2-6,28.3-14.3c6.3,7.5,17,11.8,29.1,11.1c18.7-1.1,40.6-13.3,47.3-40.2l20.9-86.5
			C179.7,66.9,152.1,63.8,148.6,83.3z"/>
		<polyline class="st0" points="370.1,96.1 397.1,74.7 399.5,86.4 		"/>
		<polyline class="st0" points="359.4,65.9 365.2,31.3 374.5,39.1 		"/>
		<polyline class="st0" points="338.4,76.5 321.1,55 329.6,48.6 		"/>
	</g>
	<path class="st0" d="M30,272.7c-5.1,0.1-9.7-3.9-10.6-9.2c-0.9-5.7,2.8-10.8,8.3-11.4c75.5-8.6,454-50.6,486.5-38.9
		c5.3,1.9,8.3,7.8,6.8,13.2c-1.6,5.4-7.1,8.2-12.5,6.2c-23.3-7.6-305.2,20.5-477.5,40C30.6,272.6,30.3,272.7,30,272.7z"/>
	<g>
		<g>
			<path class="st0" d="M579.5,207.9c1.3,1.9,2.5,3.8,3.5,5.6c1.2-5.9,0.4-10.3,0.4-10.3s-4-2.5-10.4-3.6
				C575.3,202.1,577.5,204.9,579.5,207.9z"/>
			<path class="st0" d="M536.5,236c-2.1-3-3.8-6-5.3-8.9c-1.3,6.1-0.5,10.7-0.5,10.7s3.8,2.3,9.8,3.5
				C539.1,239.7,537.8,237.9,536.5,236z"/>
		</g>
		<path class="st0" d="M575.8,210.4c-3-4.3-6.1-8.1-9.3-11.3c-5.8,0.1-12.7,1.6-19.8,6.2c-7.2,4.7-11.2,10.3-13.5,15.6
			c1.8,4.1,4.2,8.4,7.1,12.7c2.1,3.1,4.3,5.9,6.6,8.4c6,0.1,13.1-1.4,20.6-6.2c7.4-4.9,11.5-10.7,13.8-16.1
			C579.7,216.6,577.9,213.5,575.8,210.4z M569.8,212.6c-0.1,0.1-0.2,0.1-0.3,0.1c-0.4,0.1-0.8-0.2-0.9-0.6c-0.3-1-0.6-1.9-1-2.6
			l-2,1.3c0.5,0.9,0.9,1.9,1.3,3.1c0.1,0.3,0,0.7-0.3,0.9c-0.1,0-0.1,0.1-0.2,0.1c-0.4,0.1-0.9-0.1-1-0.6c-0.3-1-0.7-1.9-1.1-2.6
			l-1.9,1.2c0.5,0.8,0.9,1.8,1.3,3c0.1,0.3,0,0.7-0.3,0.9c-0.1,0-0.1,0.1-0.2,0.1c-0.4,0.1-0.9-0.1-1-0.5c-0.4-1-0.7-1.9-1.1-2.6
			l-2.4,1.5l1.7,2.5c0.3,0.4,0.2,0.8-0.2,1.1c-0.4,0.2-0.8,0.1-1.1-0.2l-1.7-2.5l-2,1.3l1.7,2.5c0.3,0.4,0.2,0.8-0.2,1.1
			c-0.4,0.2-0.8,0.1-1.1-0.2l-1.7-2.5l-2.4,1.5c0.5,0.6,1.2,1.3,2,2c0.3,0.3,0.4,0.8,0.1,1.1c0,0-0.1,0.1-0.2,0.1
			c-0.3,0.2-0.7,0.2-0.9-0.1c-0.9-0.8-1.7-1.6-2.3-2.3l-1.9,1.2c0.5,0.6,1.2,1.3,2,2c0.3,0.3,0.4,0.8,0.2,1.1
			c-0.1,0.1-0.1,0.1-0.2,0.2c-0.3,0.2-0.6,0.2-0.9-0.1c-1-0.8-1.8-1.6-2.4-2.3l-2,1.3c0.6,0.6,1.2,1.2,2.1,1.9
			c0.4,0.3,0.5,0.7,0.2,1.1c-0.1,0.1-0.1,0.1-0.2,0.2c-0.3,0.2-0.6,0.2-0.9,0c-1.1-0.8-1.9-1.5-2.6-2.3l-1.2,0.8
			c-0.4,0.2-0.8,0.1-1.1-0.2c-0.3-0.4-0.2-0.8,0.2-1.1l1.1-0.7c-1.1-1.7-1.3-3.1-1.3-3.2c0-0.4,0.3-0.8,0.7-0.8
			c0.4,0,0.8,0.3,0.9,0.7c0,0.1,0.2,1.1,1,2.5l2-1.3c-1.1-1.7-1.4-3-1.4-3c-0.1-0.4,0.2-0.8,0.6-0.9c0.4-0.1,0.8,0.2,0.9,0.6
			c0,0,0.3,1,1.2,2.5l1.9-1.2c-1.1-1.7-1.5-2.9-1.5-3c-0.1-0.4,0.1-0.8,0.6-0.9c0.4-0.1,0.8,0.2,1,0.6c0,0,0.3,1,1.2,2.5l2.4-1.6
			l-1.7-2.5c-0.2-0.4-0.2-0.8,0.2-1.1c0.4-0.2,0.8-0.1,1.1,0.2l1.7,2.5l2-1.3l-1.7-2.5c-0.2-0.4-0.2-0.8,0.2-1.1
			c0.4-0.2,0.8-0.1,1.1,0.2l1.7,2.5l2.4-1.6c-1-1.4-1.8-2.1-1.8-2.1c-0.4-0.3-0.5-0.8-0.2-1.1c0.2-0.3,0.7-0.4,1.1-0.2
			c0.1,0,1.1,0.8,2.3,2.5l1.9-1.2c-1-1.4-1.9-2-1.9-2c-0.4-0.2-0.5-0.7-0.3-1.1c0.2-0.4,0.7-0.4,1.1-0.2c0.1,0,1.2,0.8,2.3,2.5
			l2-1.3c-1-1.3-1.9-1.8-1.9-1.9c-0.4-0.2-0.5-0.7-0.3-1.1c0.2-0.4,0.7-0.5,1-0.3c0.1,0,1.3,0.7,2.5,2.4l1.1-0.7
			c0.4-0.2,0.8-0.1,1.1,0.2c0.2,0.4,0.2,0.8-0.2,1.1l-1.1,0.8c0.5,0.9,0.9,1.9,1.2,3.2C570.2,212.1,570,212.4,569.8,212.6z"/>
	</g>
</g>
</svg>
